<svg width="15" height="15" viewBox="0 0 15 15" fill="none" xmlns="http://www.w3.org/2000/svg">
<path d="M12.1875 0.9375H2.8125C2.55322 0.9375 2.34375 1.14697 2.34375 1.40625V13.5938C2.34375 13.853 2.55322 14.0625 2.8125 14.0625H12.1875C12.4468 14.0625 12.6562 13.853 12.6562 13.5938V1.40625C12.6562 1.14697 12.4468 0.9375 12.1875 0.9375ZM8.37891 1.99219H9.78516V5.06689L9.104 4.57031L8.37891 5.08887V1.99219ZM11.6016 13.0078H3.39844V1.99219H7.5V6.34131C7.5 6.38965 7.51465 6.43799 7.54395 6.47754C7.56173 6.50268 7.58432 6.52404 7.61042 6.54039C7.63651 6.55675 7.66559 6.56776 7.69597 6.5728C7.72634 6.57784 7.75742 6.57681 7.7874 6.56976C7.81737 6.56271 7.84566 6.54979 7.87061 6.53174L9.09814 5.6543L10.2905 6.52441C10.3301 6.55371 10.3784 6.56982 10.4282 6.56982C10.5571 6.56982 10.6626 6.46436 10.6626 6.33545V1.99219H11.6001V13.0078H11.6016Z" fill="white"/>
</svg>
