<svg width="32" height="32" viewBox="0 0 32 32" fill="none" xmlns="http://www.w3.org/2000/svg">
<path d="M16.4923 0C5.66154 0 0 5.6 0 11.8C0 14.8 1.96923 17.8 5.16923 19.4C6.15385 19.8 5.90769 19.4 6.64615 17C6.64615 16.8 6.64615 16.6 6.4 16.4C1.96923 12 5.66154 3.4 16 3.4C31.0154 3.4 28.0615 20.2 18.7077 20.2C16.7385 20.4 15.0154 19.2 15.0154 17.6V16.8C16 14.6 16.7385 12.6 16.9846 10.4C16.9846 6.2 9.35385 6.8 9.35385 12.4C9.35385 13.4 9.6 14.4 10.0923 15.2C10.0923 15.2 7.63077 23.4 7.13846 24.8C6.64615 27.2 6.89231 29.6 7.38462 31.8C7.13846 32 7.38462 32 7.38462 32H7.63077C9.35385 30 10.8308 28 11.8154 25.8C12.0615 24.8 13.2923 21.2 13.2923 21.2C14.5231 22.6 16.7385 23.4 18.9538 23.4C26.5846 23.4 32 18 32 11.4C32 4.8 25.1077 0 16.4923 0Z" fill="#F7F0F0"/>
</svg>
