<svg width="31" height="32" viewBox="0 0 31 32" fill="none" xmlns="http://www.w3.org/2000/svg">
<path d="M27.685 7.97494C27.7053 8.32577 27.7053 8.6746 27.7053 9.02343C27.7053 19.6988 21.3595 32 9.76235 32C6.18941 32 2.87012 30.6749 0.0769043 28.3734C0.584193 28.4476 1.07269 28.4736 1.60034 28.4736C4.43895 28.4824 7.19717 27.267 9.43042 25.0234C8.11433 24.9929 6.83852 24.4369 5.78114 23.4331C4.72376 22.4293 3.93759 21.0277 3.53241 19.4241C3.92227 19.4983 4.3137 19.5484 4.72392 19.5484C5.28913 19.5484 5.85749 19.4482 6.38513 19.2738C4.95683 18.9045 3.6725 17.9132 2.75053 16.4685C1.82856 15.0237 1.32586 13.2147 1.3279 11.349V11.2487C2.16869 11.8481 3.14412 12.223 4.17748 12.2731C3.31179 11.5366 2.60195 10.5371 2.11129 9.36382C1.62063 8.19057 1.3644 6.88005 1.36548 5.54918C1.36548 4.04962 1.67705 2.67435 2.22349 1.47551C3.8082 3.97147 5.78469 6.0134 8.02495 7.46906C10.2652 8.92471 12.7193 9.76161 15.2282 9.92557C15.1312 9.32414 15.0717 8.70066 15.0717 8.07518C15.0712 7.01458 15.2341 5.96428 15.5509 4.98432C15.8677 4.00435 16.3322 3.11395 16.9179 2.36399C17.5036 1.61404 18.199 1.01924 18.9644 0.613614C19.7297 0.207985 20.55 -0.000526008 21.3783 9.96493e-07C23.1945 9.96493e-07 24.8338 0.974314 25.9862 2.55006C27.3981 2.20046 28.7521 1.5405 29.9881 0.599424C29.5175 2.46549 28.5316 4.04782 27.2153 5.04999C28.4675 4.86712 29.6913 4.44546 30.8461 3.79902C29.9836 5.40904 28.9149 6.82089 27.685 7.97494Z" fill="#F7F0F0"/>
</svg>
