<svg width="32" height="24" viewBox="0 0 32 24" fill="none" xmlns="http://www.w3.org/2000/svg">
<path d="M16.102 0.997986H16.28C17.924 1.00399 26.254 1.06399 28.5 1.66799C29.179 1.85232 29.7977 2.21163 30.2943 2.71C30.7909 3.20837 31.1481 3.82835 31.33 4.50799C31.532 5.26799 31.674 6.27399 31.77 7.31199L31.79 7.51999L31.834 8.03999L31.85 8.24799C31.98 10.076 31.996 11.788 31.998 12.162V12.312C31.996 12.7 31.978 14.528 31.834 16.432L31.818 16.642L31.8 16.85C31.7 17.994 31.552 19.13 31.33 19.966C31.1486 20.6459 30.7917 21.2662 30.295 21.7646C29.7983 22.2631 29.1793 22.6222 28.5 22.806C26.18 23.43 17.362 23.474 16.14 23.476H15.856C15.238 23.476 12.682 23.464 10.002 23.372L9.662 23.36L9.488 23.352L9.146 23.338L8.804 23.324C6.584 23.226 4.47 23.068 3.496 22.804C2.81698 22.6204 2.19813 22.2616 1.70145 21.7635C1.20477 21.2654 0.847694 20.6455 0.666 19.966C0.444 19.132 0.296 17.994 0.196 16.85L0.18 16.64L0.164 16.432C0.0652952 15.0768 0.0105997 13.7187 0 12.36L0 12.114C0.004 11.684 0.02 10.198 0.128 8.55799L0.142 8.35199L0.148 8.24799L0.164 8.03999L0.208 7.51999L0.228 7.31199C0.324 6.27399 0.466 5.26599 0.668 4.50799C0.849387 3.82808 1.20632 3.20781 1.70303 2.70935C2.19973 2.21089 2.81874 1.85177 3.498 1.66799C4.472 1.40799 6.586 1.24799 8.806 1.14799L9.146 1.13399L9.49 1.12199L9.662 1.11599L10.004 1.10199C11.9074 1.04074 13.8116 1.00673 15.716 0.999986H16.102V0.997986ZM12.8 7.41799V17.054L21.114 12.238L12.8 7.41799Z" fill="#F7F0F0"/>
</svg>
